<svg xmlns="http://www.w3.org/2000/svg" viewBox="0 0 200 240">
  <!-- Lock Body Shadow -->
  <path d="M30 80 L170 80 Q180 80 180 90 L180 230 Q180 240 170 240 L30 240 Q20 240 20 230 L20 90 Q20 80 30 80" 
        fill="#666"/>
  
  <!-- Lock Body -->
  <path d="M25 75 L165 75 Q175 75 175 85 L175 225 Q175 235 165 235 L25 235 Q15 235 15 225 L15 85 Q15 75 25 75" 
        fill="url(#lockGradient)"/>
  
  <!-- Shackle Shadow -->
  <path d="M50 75 L50 45 Q50 15 95 15 Q140 15 140 45 L140 75" 
        stroke="#666"
        stroke-width="25"
        fill="none"/>
  
  <!-- Shackle -->
  <path d="M45 70 L45 40 Q45 10 95 10 Q145 10 145 40 L145 70" 
        stroke="url(#shackleGradient)"
        stroke-width="20"
        fill="none"
        stroke-linecap="round"/>
  
  <!-- Keyhole -->
  <circle cx="95" cy="140" r="25" fill="#444"/>
  <path d="M95 130 L95 170 M85 150 L105 150" 
        stroke="#222"
        stroke-width="8"
        stroke-linecap="round"/>
  
  <!-- Highlights -->
  <path d="M40 100 L150 100" stroke="white" stroke-width="2" opacity="0.2"/>
  <path d="M35 180 L155 180" stroke="black" stroke-width="2" opacity="0.1"/>
  
  <!-- Gradients -->
  <defs>
    <linearGradient id="lockGradient" x1="0%" y1="0%" x2="100%" y2="100%">
      <stop offset="0%" style="stop-color:#999"/>
      <stop offset="50%" style="stop-color:#777"/>
      <stop offset="100%" style="stop-color:#555"/>
    </linearGradient>
    
    <linearGradient id="shackleGradient" x1="0%" y1="0%" x2="100%" y2="100%">
      <stop offset="0%" style="stop-color:#888"/>
      <stop offset="50%" style="stop-color:#666"/>
      <stop offset="100%" style="stop-color:#444"/>
    </linearGradient>
  </defs>
</svg>
